<svg width="270" height="270" version="1.1" xmlns="http://www.w3.org/2000/svg" xmlns:xlink="http://www.w3.org/1999/xlink"><path d="M109.16 220.43L109.16 220.43Q110.21 216.21 112.85 215.16L112.85 215.16Q114.43 214.63 115.88 213.97Q117.33 213.31 117.60 212.26L117.60 212.26Q118.65 210.15 118.92 206.19L118.92 206.19Q118.65 204.87 118.39 200.79Q118.13 196.70 116.28 193.80L116.28 193.80Q113.91 190.63 113.91 187.47Q113.91 184.31 116.81 181.93L116.81 181.93Q117.60 180.09 123.53 179.56Q129.46 179.03 144.76 179.03L144.76 179.03L170.33 179.03L169.54 162.95L145.81 163.48Q139.22 163.74 134.74 163.74L134.74 163.74Q127.88 163.74 124.45 163.08Q121.03 162.42 119.97 159.79L119.97 159.79Q117.60 156.36 116.41 149.77Q115.22 143.17 114.96 130.25L114.96 130.25Q114.70 125.51 114.70 122.08L114.70 122.08Q114.70 117.86 115.22 114.83Q115.75 111.80 119.71 110.21L119.71 110.21Q124.72 109.69 139.22 109.69L139.22 109.69Q151.08 109.69 181.14 110.21Q211.20 110.74 218.32 112.32L218.32 112.32Q222.01 117.86 222.54 128.94Q223.07 140.01 223.07 142.91L223.07 142.91Q223.07 156.09 220.17 160.58L220.17 160.58Q219.38 161.63 215.29 161.89Q211.20 162.16 204.61 162.16L204.61 162.16L190.37 161.63L191.69 180.09L207.77 180.62Q220.69 181.41 225.44 183.38Q230.19 185.36 230.19 190.11L230.19 190.11Q230.19 195.38 226.76 196.44Q223.33 197.49 217.53 197.49L217.53 197.49Q214.10 197.49 209.36 197.23L209.36 197.23L194.06 196.17L194.06 216.74L217.00 216.74Q235.46 216.74 239.94 218.32Q244.42 219.90 244.42 223.07L244.42 223.07Q244.42 224.65 243.37 227.02L243.37 227.02Q242.05 231.24 236.38 232.56Q230.71 233.88 219.90 233.88L219.90 233.88Q215.95 233.88 211.20 233.61L211.20 233.61L195.12 232.82L194.59 241.26Q194.06 248.38 191.43 252.20Q188.79 256.03 184.57 256.03L184.57 256.03Q180.35 256.03 178.24 252.47Q176.13 248.91 175.08 240.73L175.08 240.73L174.55 231.24L143.44 230.45Q128.67 229.92 120.10 229.26Q111.53 228.60 110.48 227.55L110.48 227.55Q108.90 225.44 108.90 222.80L108.90 222.80Q108.90 221.75 109.16 220.43ZM97.29 86.22L97.29 86.22Q98.35 84.11 102.83 83.45Q107.31 82.79 119.18 82.27L119.18 82.27Q141.86 81.74 144.76 81.47Q147.66 81.21 147.66 80.16L147.66 80.16Q147.66 79.63 146.60 78.57L146.60 78.57Q145.81 76.99 145.68 75.15Q145.55 73.30 145.55 72.25L145.55 72.25Q145.55 70.40 145.81 68.55L145.81 68.55Q146.07 65.65 146.07 64.07L146.07 64.07Q146.07 63.28 145.94 62.09Q145.81 60.91 144.23 60.91L144.23 60.91L129.46 60.91Q127.35 60.91 125.24 60.91L125.24 60.91Q118.65 60.91 114.57 59.33Q110.48 57.74 110.48 54.32L110.48 54.32Q110.48 54.05 110.48 53.79L110.48 53.79Q110.48 53.53 110.48 53.00L110.48 53.00Q110.48 48.25 114.04 46.54Q117.60 44.82 131.57 44.30L131.57 44.30L149.50 43.77L151.35 37.18Q151.88 34.80 153.33 32.04Q154.78 29.27 155.57 27.16L155.57 27.16Q157.15 25.31 159.26 24.39Q161.37 23.47 164.27 23.47L164.27 23.47Q169.54 23.47 171.65 26.50Q173.76 29.53 173.76 36.65L173.76 36.65L173.76 43.51L192.22 44.30Q210.67 44.82 214.23 47.86Q217.79 50.89 217.79 59.33L217.79 59.33Q217.79 62.49 217.27 66.71L217.27 66.71L216.47 81.74L230.71 81.74Q237.30 81.74 241.52 82.27Q245.74 82.79 246.80 83.85L246.80 83.85Q248.64 85.69 248.64 88.59L248.64 88.59Q248.64 89.12 248.38 91.36Q248.12 93.60 245.48 96.50L245.48 96.50Q244.42 98.35 231.90 99.14Q219.38 99.93 172.71 99.93L172.71 99.93Q142.91 100.46 127.09 100.46L127.09 100.46Q118.92 100.46 109.82 100.20Q100.72 99.93 99.14 98.09L99.14 98.09Q95.98 95.71 95.45 93.74Q94.92 91.76 94.92 91.23L94.92 91.23Q94.92 88.59 97.29 86.22ZM21.36 139.75L21.36 139.75Q22.41 133.15 38.76 103.49Q55.11 73.83 80.68 33.49L80.68 33.49Q84.11 28.21 86.22 27.69Q88.33 27.16 89.38 27.16L89.38 27.16Q92.02 27.16 95.45 28.74L95.45 28.74Q96.77 29.53 97.56 31.25Q98.35 32.96 98.35 35.86L98.35 35.86Q98.35 40.08 92.55 52.47Q86.75 64.86 80.16 75.15L80.16 75.15L75.94 81.74L74.88 162.42Q74.62 204.35 73.83 224.91Q73.04 245.48 72.25 247.59L72.25 247.59Q70.14 251.81 67.76 252.07Q65.39 252.33 65.13 252.33L65.13 252.33Q61.44 252.33 58.01 248.91L58.01 248.91Q55.90 248.38 55.63 240.07Q55.37 231.77 55.37 220.43L55.37 220.43Q55.37 205.40 55.63 179.03L55.63 179.03L55.63 132.89Q55.63 114.70 54.58 114.70L54.58 114.70Q54.05 114.96 51.42 119.71Q48.78 124.45 45.62 130.78L45.62 130.78Q38.50 143.44 35.07 146.60Q31.64 149.77 29.27 149.77L29.27 149.77Q27.16 149.77 25.05 147.92L25.05 147.92Q23.73 145.81 22.54 143.70Q21.36 141.59 21.36 139.75ZM133.15 132.10L133.15 132.10Q133.42 135 133.95 138.69L133.95 138.69Q134.74 144.49 135.53 145.94Q136.32 147.39 138.43 147.39L138.43 147.39Q139.22 147.39 140.01 147.39L140.01 147.39Q142.38 147.39 152.14 147.13Q161.89 146.87 174.55 146.87L174.55 146.87L204.61 146.34L204.61 126.04L169.54 126.04Q149.50 126.04 141.46 126.43Q133.42 126.83 133.42 128.41L133.42 128.41Q133.15 128.94 133.15 130.52L133.15 130.52Q133.15 131.04 133.15 132.10ZM165.32 80.95L165.32 80.95Q167.96 81.74 180.35 81.74L180.35 81.74L197.49 81.74L197.49 60.91L167.17 60.91L166.11 67.50Q165.59 70.40 165.19 73.30Q164.79 76.20 164.27 77.52L164.27 77.52Q163.74 78.57 163.74 79.37L163.74 79.37Q163.74 80.68 165.32 80.95ZM137.11 211.99L137.11 211.99Q137.64 213.31 140.01 213.31L140.01 213.31Q141.86 213.31 146.34 213.57Q150.82 213.84 156.09 214.37L156.09 214.37Q161.37 214.63 165.45 214.63Q169.54 214.63 170.86 214.37L170.86 214.37Q172.18 213.84 172.18 208.56L172.18 208.56Q172.18 206.98 172.18 205.14L172.18 205.14L171.39 197.23L155.30 197.23Q148.18 197.23 143.57 197.62Q138.96 198.02 138.69 198.54L138.69 198.54Q138.16 199.60 137.90 201.97Q137.64 204.35 137.11 206.72L137.11 206.72Q136.85 208.83 136.85 210.15L136.85 210.15Q136.85 211.46 137.11 211.99Z" stroke="#000" fill="black" /></svg>