<svg width="270" height="270" version="1.1" xmlns="http://www.w3.org/2000/svg" xmlns:xlink="http://www.w3.org/1999/xlink"><path d="M21.88 65.13L21.88 65.13Q21.62 64.34 21.62 63.54L21.62 63.54Q21.62 58.54 28.08 56.82Q34.54 55.11 60.64 54.58L60.64 54.58Q77.52 54.05 88.59 54.05L88.59 54.05Q97.82 54.05 105.86 54.58Q113.91 55.11 113.91 57.74L113.91 57.74Q113.91 58.01 113.91 58.01L113.91 58.01Q113.91 58.80 114.17 59.85Q114.43 60.91 114.70 61.70L114.70 61.70Q114.96 62.23 114.96 63.02L114.96 63.02Q114.96 64.07 114.17 65.79Q113.38 67.50 111.53 69.87L111.53 69.87Q109.16 72.25 107.05 77.65Q104.94 83.06 102.83 90.18L102.83 90.18Q100.99 96.50 98.61 104.94Q96.24 113.38 94.39 120.50L94.39 120.50Q90.97 132.36 90.57 137.64Q90.18 142.91 90.18 144.76L90.18 144.76Q90.18 149.50 91.49 151.35L91.49 151.35Q92.02 151.88 93.21 153.98Q94.39 156.09 95.45 158.99L95.45 158.99Q96.24 161.37 97.95 165.72Q99.67 170.07 101.51 173.76L101.51 173.76Q104.94 181.41 105.07 184.04Q105.21 186.68 105.21 186.94L105.21 186.94Q105.21 191.69 102.83 197.49L102.83 197.49Q101.51 201.18 100.33 202.10Q99.14 203.03 97.56 203.03L97.56 203.03Q96.77 203.03 95.71 202.76L95.71 202.76Q93.08 202.76 90.70 199.86Q88.33 196.96 83.58 187.47L83.58 187.47Q80.68 180.88 78.31 176.79Q75.94 172.71 74.88 172.44L74.88 172.44Q73.04 172.71 66.45 181.54Q59.85 190.37 52.21 202.76L52.21 202.76Q43.24 216.47 39.42 218.45Q35.60 220.43 34.01 220.43L34.01 220.43Q30.32 220.43 27.42 215.16L27.42 215.16Q26.10 212.52 26.10 209.09L26.10 209.09Q26.10 206.72 27.29 202.37Q28.48 198.02 33.75 192.22L33.75 192.22Q43.24 181.41 51.68 167.43Q60.12 153.46 61.17 148.18L61.17 148.18Q60.64 146.60 56.69 141.20Q52.73 135.79 46.41 129.20L46.41 129.20Q40.34 122.08 35.99 116.41Q31.64 110.74 30.85 108.63L30.85 108.63Q30.59 107.31 30.59 106.26L30.59 106.26Q30.59 103.36 32.83 99.93Q35.07 96.50 39.29 94.39L39.29 94.39Q39.81 94.13 40.34 94.13L40.34 94.13Q42.45 94.13 45.88 97.16Q49.31 100.20 58.80 112.59L58.80 112.59Q65.65 121.82 68.82 121.82L68.82 121.82Q68.82 121.82 70.40 121.68Q71.98 121.55 76.46 111.53L76.46 111.53Q80.16 102.57 83.19 92.15Q86.22 81.74 86.75 76.46L86.75 76.46Q86.75 76.20 86.75 75.94L86.75 75.94Q86.75 74.09 83.19 73.70Q79.63 73.30 73.56 73.30L73.56 73.30Q66.97 73.30 56.95 73.56L56.95 73.56Q50.63 73.83 45.62 73.83L45.62 73.83Q31.64 73.83 26.63 72.64Q21.62 71.46 21.62 66.71L21.62 66.71Q21.62 65.92 21.88 65.13ZM121.03 72.77L121.03 72.77L122.34 68.29L188.79 68.29L188.26 62.75Q186.94 51.68 186.55 41.79Q186.15 31.90 186.15 28.21L186.15 28.21Q186.15 21.09 186.94 19.51L186.94 19.51Q187.47 18.46 188.66 17.80Q189.84 17.14 190.63 16.61L190.63 16.61Q192.74 15.56 194.33 15.56L194.33 15.56Q194.59 15.56 195.51 15.82Q196.44 16.08 198.81 18.98L198.81 18.98Q204.87 25.58 206.98 52.21L206.98 52.21Q207.77 65.65 209.62 67.90Q211.46 70.14 217.53 70.14L217.53 70.14Q219.64 70.14 222.01 69.87L222.01 69.87Q227.29 69.87 231.77 70.27Q236.25 70.66 238.10 71.19L238.10 71.19Q242.05 72.25 242.58 74.88Q243.11 77.52 243.11 78.57L243.11 78.57Q243.11 81.74 241.00 84.64L241.00 84.64Q239.68 87.28 237.04 88.07Q234.40 88.86 226.23 88.86L226.23 88.86Q221.22 88.86 217.13 89.25Q213.05 89.65 211.73 90.18L211.73 90.18Q210.67 90.70 210.67 93.74Q210.67 96.77 211.73 103.10L211.73 103.10Q211.99 108.37 212.78 111.93Q213.57 115.49 214.10 116.28L214.10 116.28Q214.37 116.81 215.16 122.08Q215.95 127.35 217.27 134.47L217.27 134.47Q221.48 163.74 225.57 180.88Q229.66 198.02 232.03 198.02L232.03 198.02Q232.56 198.02 232.95 197.49Q233.35 196.96 233.35 196.44L233.35 196.44Q233.88 194.06 236.38 193.80Q238.89 193.54 239.68 193.54L239.68 193.54Q242.84 193.54 245.21 194.59L245.21 194.59Q248.64 196.17 248.64 200.92L248.64 200.92Q248.64 201.45 248.38 204.74Q248.12 208.04 242.84 219.38L242.84 219.38Q239.15 228.87 237.57 230.98Q235.99 233.09 233.35 233.09L233.35 233.09Q232.82 233.09 232.03 233.09L232.03 233.09Q231.24 233.35 230.45 233.35L230.45 233.35Q226.23 233.35 222.67 227.81Q219.11 222.28 211.99 202.76L211.99 202.76Q206.46 188.53 202.63 170.20Q198.81 151.88 193.54 116.81L193.54 116.81L189.84 91.76L184.57 90.18Q181.67 89.65 172.97 88.99Q164.27 88.33 153.72 88.33L153.72 88.33Q142.91 87.28 135 86.88Q127.09 86.48 125.24 85.96L125.24 85.96Q121.82 84.90 121.03 82.13Q120.23 79.37 120.23 77.52L120.23 77.52Q120.23 75.15 121.03 72.77ZM104.15 213.05L104.15 213.05Q106.26 206.46 115.22 203.55L115.22 203.55Q118.65 202.76 120.76 201.84Q122.87 200.92 123.40 199.86L123.40 199.86Q123.40 199.34 123.79 190.37Q124.19 181.41 124.19 168.49L124.19 168.49Q124.19 143.44 125.64 135.79Q127.09 128.14 131.31 127.35L131.31 127.35Q133.68 126.30 135.26 126.30L135.26 126.30Q138.69 126.30 140.01 131.31Q141.33 136.32 141.33 161.37L141.33 161.37L141.33 192.22L148.45 191.43L155.04 190.37L155.04 152.40Q155.04 132.36 155.30 122.74Q155.57 113.12 157.15 111.53L157.15 111.53Q159.26 109.42 163.48 109.42L163.48 109.42Q164.00 109.42 166.64 109.56Q169.28 109.69 170.86 112.06L170.86 112.06Q171.39 113.38 171.78 117.47Q172.18 121.55 172.18 126.83L172.18 126.83L172.18 138.16L177.98 138.16Q183.25 138.69 187.73 140.27Q192.22 141.86 193.01 144.23L193.01 144.23Q193.54 146.07 193.54 147.66L193.54 147.66Q193.54 151.35 189.58 154.91Q185.63 158.47 177.98 158.99L177.98 158.99Q177.45 158.99 177.19 158.99L177.19 158.99Q174.29 158.99 173.10 161.76Q171.91 164.53 171.91 171.12L171.91 171.12Q171.91 173.23 172.18 176.13L172.18 176.13L172.18 188.00L178.77 186.94Q180.09 186.94 181.41 186.68L181.41 186.68Q188.00 186.94 190.11 189.45Q192.22 191.95 192.22 194.33L192.22 194.33Q192.22 196.96 190.37 200.39L190.37 200.39Q188.79 201.71 182.59 203.82Q176.40 205.93 164.27 208.30L164.27 208.30Q154.25 210.67 143.57 213.84Q132.89 217.00 127.09 218.85L127.09 218.85Q119.18 222.28 116.54 222.67Q113.91 223.07 112.59 223.07L112.59 223.07Q110.74 223.07 109.16 222.54L109.16 222.54Q103.62 220.43 103.62 215.95L103.62 215.95Q103.62 214.63 104.15 213.05ZM132.36 30.85L132.36 30.85Q136.85 30.06 148.97 30.06L148.97 30.06Q151.08 30.06 160.05 30.19Q169.01 30.32 175.08 31.38L175.08 31.38Q176.40 31.90 178.11 33.09Q179.82 34.28 180.88 35.60L180.88 35.60Q181.67 37.44 181.67 39.02L181.67 39.02Q181.67 41.13 180.09 43.64Q178.51 46.14 172.18 47.99L172.18 47.99Q165.06 49.31 152.01 49.31Q138.96 49.31 132.89 47.46L132.89 47.46Q126.30 44.56 126.17 41.53Q126.04 38.50 126.04 38.23L126.04 38.23Q126.04 32.70 132.36 30.85ZM49.31 25.31L49.31 25.31Q49.83 23.20 54.58 21.36L54.58 21.36Q56.95 20.57 59.59 19.78Q62.23 18.98 63.54 18.46L63.54 18.46Q67.76 19.51 75.81 25.44Q83.85 31.38 86.75 36.12L86.75 36.12Q87.80 38.23 87.80 40.08L87.80 40.08Q87.80 41.40 87.01 43.77Q86.22 46.14 83.06 47.99L83.06 47.99Q81.74 48.52 80.42 48.52L80.42 48.52Q76.73 48.52 70.14 44.96Q63.54 41.40 53.00 31.38L53.00 31.38Q49.31 28.21 49.31 25.84L49.31 25.84Q49.31 25.58 49.31 25.31ZM211.99 34.28L211.99 34.28Q213.57 30.59 217.27 30.59L217.27 30.59Q218.32 30.59 221.35 31.25Q224.38 31.90 230.98 37.97L230.98 37.97Q237.83 44.56 238.89 47.99Q239.94 51.42 239.94 53.00L239.94 53.00Q239.94 56.16 238.10 58.80L238.10 58.80Q235.20 63.28 231.50 63.28L231.50 63.28Q231.24 63.28 229.00 63.02Q226.76 62.75 223.86 57.48L223.86 57.48Q222.54 55.11 220.43 51.55Q218.32 47.99 215.95 44.56L215.95 44.56Q211.99 38.50 211.99 35.33L211.99 35.33Q211.99 34.80 211.99 34.28Z" stroke="#000" fill="black" /></svg>