<svg width="270" height="270" version="1.1" xmlns="http://www.w3.org/2000/svg" xmlns:xlink="http://www.w3.org/1999/xlink"><path d="M39.55 182.46L39.55 182.46Q47.72 180.88 82.79 180.62L82.79 180.62L127.35 179.56L127.88 142.91L127.88 107.05L98.88 107.05Q74.36 107.05 66.45 105.21Q58.54 103.36 58.54 98.61L58.54 98.61Q58.54 98.09 58.54 97.56L58.54 97.56Q58.54 97.29 58.54 97.03L58.54 97.03Q58.54 90.70 65.26 88.86Q71.98 87.01 96.50 87.01L96.50 87.01L128.41 85.96L128.41 79.89Q128.41 76.99 128.67 68.29Q128.94 59.59 128.94 49.04L128.94 49.04L129.73 24.79L88.59 25.84Q65.39 26.63 56.16 26.63L56.16 26.63Q54.84 26.63 50.36 26.50Q45.88 26.37 44.30 23.99L44.30 23.99Q41.66 21.62 41.40 19.51Q41.13 17.40 41.13 16.88L41.13 16.88Q41.13 13.97 42.98 11.07L42.98 11.07Q44.03 8.70 57.08 7.78Q70.14 6.86 98.88 6.33L98.88 6.33Q111.80 6.33 120.37 5.80Q128.94 5.27 129.73 5.27L129.73 5.27Q130.25 5.01 143.31 4.75Q156.36 4.48 175.34 4.48L175.34 4.48Q205.40 4.48 213.71 4.88Q222.01 5.27 222.80 7.65L222.80 7.65Q224.38 9.23 224.65 10.55Q224.91 11.87 224.91 12.66L224.91 12.66Q224.91 13.71 224.65 14.50L224.65 14.50Q224.38 19.51 217.27 21.23Q210.15 22.94 184.04 23.47L184.04 23.47L149.77 23.99L148.71 85.96L176.40 87.01Q199.07 87.01 205.53 88.73Q211.99 90.44 211.99 96.24L211.99 96.24Q211.99 96.50 211.99 97.03L211.99 97.03Q211.99 97.29 211.99 97.82L211.99 97.82Q211.99 103.10 205.40 104.94Q198.81 106.79 185.36 106.79L185.36 106.79Q180.09 106.79 174.02 106.52L174.02 106.52L146.87 106.00L146.87 179.56L185.89 179.03Q210.41 179.03 219.24 179.56Q228.08 180.09 230.98 181.93L230.98 181.93Q236.25 184.31 237.04 186.94Q237.83 189.58 237.83 190.63L237.83 190.63Q237.83 193.80 235.20 196.70L235.20 196.70Q234.67 198.02 222.28 198.68Q209.88 199.34 187.47 199.34L187.47 199.34Q172.44 199.34 151.61 199.07L151.61 199.07Q117.07 199.07 89.78 199.47Q62.49 199.86 54.84 200.39L54.84 200.39Q50.10 200.65 46.41 200.65L46.41 200.65Q39.55 200.65 35.99 199.07Q32.43 197.49 32.43 191.69L32.43 191.69Q32.43 191.16 32.43 190.90L32.43 190.90Q32.17 190.11 32.17 189.32L32.17 189.32Q32.17 184.04 39.55 182.46Z" stroke="#000" fill="black" /></svg>