<?xml version="1.0" encoding="UTF-8" standalone="no"?>
        <svg 
    viewBox="16.954210069444446 -85.283203125 443.26171875 50.18554687499999"
    width="426.30750868055554"
    height="135.46875"
   xmlns="http://www.w3.org/2000/svg"
   xmlns:svg="http://www.w3.org/2000/svg">
   <path d="M88.48-106.05L88.48-106.05Q98.00-108.54 98.00-103.86L98.00-103.86Q98.00-102.10 95.95-101.00Q93.90-99.90 90.97-100.05L90.97-100.05Q88.77-100.05 82.76-99.02L82.76-99.02Q71.78-96.97 61.82-96.53L61.82-96.53Q56.98-96.39 51.05-96.83Q45.12-97.27 42.63-98.00L42.63-98.00Q40.43-98.58 40.14-100.49Q39.84-102.39 41.75-103.42L41.75-103.42Q43.07-104.00 45.56-103.42L45.56-103.42Q51.71-102.10 65.55-102.98Q79.39-103.86 88.48-106.05ZM68.99-82.62Q68.85-92.14 69.43-93.24Q70.02-94.34 71.78-94.34L71.78-94.34Q73.97-94.34 74.49-92.58Q75-90.82 75-82.47L75-82.47L75-72.80L77.64-73.10Q81.30-73.68 89.14-74.27Q96.97-74.85 99.32-74.85L99.32-74.85Q101.95-74.85 102.98-74.19Q104.00-73.54 104.00-71.92L104.00-71.92Q104.00-69.87 102.03-69.21Q100.05-68.55 93.02-68.26L93.02-68.26Q77.78-67.68 76.03-66.65L76.03-66.65Q75.44-66.36 75.73-53.03L75.73-53.03Q76.03-39.70 77.05-36.62L77.05-36.62Q77.93-33.69 78.22-29.44L78.22-29.44Q78.52-25.78 78.00-24.61Q77.49-23.44 75.44-23.44L75.44-23.44Q74.12-23.44 73.32-24.54Q72.51-25.63 72.51-27.39L72.51-27.39Q72.51-29.15 71.56-32.89Q70.61-36.62 70.02-51.12Q69.43-65.63 68.99-66.06L68.99-66.06Q68.70-66.50 66.21-65.92L66.21-65.92Q63.72-65.48 57.13-64.97Q50.54-64.45 46.00-63.43L46.00-63.43Q41.75-62.55 40.06-62.48Q38.38-62.40 37.35-63.28L37.35-63.28Q35.89-64.75 36.91-66.28Q37.94-67.82 40.87-68.41L40.87-68.41Q49.22-70.31 53.47-70.61L53.47-70.61Q67.53-71.78 68.41-72.51L68.41-72.51Q69.14-73.10 68.99-82.62ZM36.33-25.34L36.33-25.34Q32.08-24.90 25.42-23.29Q18.75-21.68 17.87-20.80L17.87-20.80Q15.97-18.90 18.02-16.85L18.02-16.85Q19.04-15.82 21.97-16.11L21.97-16.11Q24.76-16.55 25.20-16.85L25.20-16.85Q25.78-17.29 30.47-18.31L30.47-18.31Q40.14-20.51 51.56-18.46L51.56-18.46Q56.98-17.43 60.50-16.99L60.50-16.99Q65.77-16.11 66.94-15.82L66.94-15.82Q80.42-13.77 111.33-15.38L111.33-15.38Q121.14-15.82 129.20-15.97L129.20-15.97L138.28-16.11L141.06-14.65Q142.97-13.77 143.70-13.62Q144.43-13.48 145.46-13.92L145.46-13.92Q146.48-14.36 146.78-14.72Q147.07-15.09 147.07-16.26L147.07-16.26Q147.07-17.87 146.41-18.60Q145.75-19.34 143.99-19.63L143.99-19.63Q141.94-20.07 122.97-20.21Q104.00-20.36 97.71-19.92L97.71-19.92Q82.47-18.90 59.18-23.14L59.18-23.14Q50.39-24.76 42.19-25.49L42.19-25.49Q40.28-25.78 36.33-25.34L36.33-25.34ZM233.06-108.98Q233.20-115.14 234.08-116.53Q234.96-117.92 237.01-117.92L237.01-117.92Q238.48-117.92 239.50-117.11Q240.53-116.31 240.53-115.14L240.53-115.14Q240.67-114.26 240.23-108.98L240.23-108.98L239.94-103.86L245.21-103.86Q250.63-103.86 252.61-102.76Q254.59-101.66 255.47-98.14L255.47-98.14Q256.05-95.65 255.62-93.02L255.62-93.02Q255.03-90.38 255.03-87.74L255.03-87.74Q255.03-85.25 253.86-82.03L253.86-82.03Q252.83-78.96 253.05-78.74Q253.27-78.52 256.79-79.25L256.79-79.25Q261.18-80.13 262.06-80.20Q262.94-80.27 263.96-79.39L263.96-79.39Q265.14-78.52 265.21-76.76Q265.28-75 264.26-74.12L264.26-74.12Q261.62-72.07 256.20-71.48L256.20-71.48Q247.12-70.31 244.63-69.80Q242.14-69.29 240.23-67.97L240.23-67.97Q238.48-66.80 237.96-66.65Q237.45-66.50 236.28-66.94L236.28-66.94Q233.64-68.12 228.22-66.94L228.22-66.94Q225.73-66.50 219.73-65.63L219.73-65.63Q215.48-65.04 210.79-63.79Q206.10-62.55 205.22-61.82L205.22-61.82Q204.79-61.38 202.88-61.38L202.88-61.38Q201.27-61.38 199.88-62.55Q198.49-63.72 198.49-64.89L198.49-64.89Q198.49-65.92 199.80-67.38Q201.12-68.85 202.15-68.99L202.15-68.99Q203.17-69.29 205.96-70.17L205.96-70.17Q212.70-72.22 218.26-72.95L218.26-72.95Q229.54-74.27 232.18-75.29L232.18-75.29L233.50-75.88L233.20-84.96Q232.91-94.19 232.62-94.48L232.62-94.48Q231.88-95.21 225.44-92.58L225.44-92.58Q223.24-91.70 220.75-90.23L220.75-90.23Q217.53-88.33 215.77-91.55L215.77-91.55Q215.04-92.87 215.04-93.31Q215.04-93.75 215.63-94.63L215.63-94.63Q216.94-96.53 219.87-98.07Q222.80-99.61 229.69-101.81L229.69-101.81L232.76-102.69L233.06-108.98ZM199.95-111.33L199.95-111.33Q203.32-112.94 205.22-109.86L205.22-109.86Q205.81-108.84 205.74-108.11Q205.66-107.37 204.79-104.74L204.79-104.74Q203.03-99.46 200.46-95.21Q197.90-90.97 193.21-85.25L193.21-85.25Q189.55-81.01 189.55-80.49Q189.55-79.98 188.96-79.83L188.96-79.83Q188.53-79.69 183.69-74.85L183.69-74.85Q179.00-70.31 177.54-69.14L177.54-69.14Q177.10-68.85 175.34-67.46Q173.58-66.06 172.56-65.19L172.56-65.19Q168.46-61.96 166.99-60.64L166.99-60.64Q165.09-59.03 162.74-57.71L162.74-57.71Q158.94-55.37 157.03-58.45L157.03-58.45Q156.01-60.06 156.74-61.45Q157.47-62.84 159.08-64.01L159.08-64.01Q160.69-65.04 162.60-66.65L162.60-66.65Q164.21-67.97 168.60-71.34L168.60-71.34Q172.56-74.41 179.44-81.30Q186.33-88.18 189.55-92.43L189.55-92.43Q195.85-100.63 197.46-105.91L197.46-105.91Q197.61-106.64 197.97-107.96Q198.34-109.28 198.34-109.42L198.34-109.42Q198.78-110.60 199.95-111.33ZM242.58-96.53L242.58-96.53Q240.97-96.24 240.53-95.51Q240.09-94.78 240.23-93.02L240.23-93.02Q240.38-90.67 240.82-83.79L240.82-83.79Q240.82-81.45 240.97-80.20Q241.11-78.96 241.19-78.15Q241.26-77.34 241.48-77.12Q241.70-76.90 241.85-77.05L241.85-77.05Q242.72-77.20 243.02-78.81L243.02-78.81Q243.46-80.57 245.21-82.18L245.21-82.18Q246.39-83.20 246.75-84.23Q247.12-85.25 247.85-89.50L247.85-89.50Q248.73-95.36 248.00-96.09L248.00-96.09Q246.97-97.41 242.58-96.53ZM190.43-80.42L190.43-80.42Q191.89-81.74 193.65-81.30Q195.41-80.86 196.00-79.10L196.00-79.10Q196.44-77.93 197.02-66.06L197.02-66.06Q197.61-54.05 197.75-50.68L197.75-50.68Q197.90-46.44 198.19-27.83L198.19-27.83Q198.63-8.64 199.22-6.45L199.22-6.45Q199.95-3.66 199.00-2.20Q198.05-0.73 195.70-1.03L195.70-1.03Q193.80-1.17 192.77-2.93L192.77-2.93Q191.89-4.39 191.53-11.50Q191.16-18.60 190.58-42.19L190.58-42.19Q190.14-62.40 189.84-62.84L189.84-62.84Q189.55-63.28 189.40-71.48L189.40-71.48Q189.40-77.34 189.48-78.59Q189.55-79.83 190.43-80.42ZM244.48-63.13L244.48-63.13Q250.49-64.16 253.13-63.28L253.13-63.28Q258.25-61.52 256.79-57.42L256.79-57.42Q256.05-55.66 255.47-51.86L255.47-51.86Q254.74-47.31 253.64-44.53Q252.54-41.75 250.34-38.67L250.34-38.67Q249.76-37.94 251.29-35.08Q252.83-32.23 254.00-31.79L254.00-31.79Q254.74-31.49 255.47-30.18L255.47-30.18Q256.20-28.86 255.18-26.81L255.18-26.81Q254.44-25.34 254.37-24.32Q254.30-23.29 254.74-20.07L254.74-20.07Q255.18-15.53 255.47-15.23L255.47-15.23Q255.91-14.79 260.30-15.75Q264.70-16.70 266.16-17.43L266.16-17.43Q268.07-18.46 269.53-17.87L269.53-17.87Q271.73-16.99 271.80-14.87Q271.88-12.74 269.82-11.28L269.82-11.28Q266.60-8.94 259.28-8.20L259.28-8.20Q256.20-7.91 255.62-7.18L255.62-7.18Q254.88-6.59 255.76 4.10L255.76 4.10Q256.20 11.87 256.20 13.55Q256.20 15.23 255.62 16.11L255.62 16.11Q254.74 17.29 253.34 17.50Q251.95 17.72 250.78 16.85L250.78 16.85Q249.61 16.11 249.10 13.18Q248.58 10.25 248.29 2.64L248.29 2.64Q248.00-6.15 247.49-6.59Q246.97-7.03 244.34-6.45L244.34-6.45Q230.13-3.37 223.10-3.37L223.10-3.37Q220.61-3.37 219.58-4.69L219.58-4.69Q217.38-7.47 220.02-9.81L220.02-9.81Q222.22-11.72 225.07-14.72Q227.93-17.72 227.93-18.02L227.93-18.02Q227.93-18.46 226.46-19.70Q225-20.95 225-22.56L225-22.56Q225-25.05 226.98-26.44Q228.96-27.83 232.47-27.83L232.47-27.83Q235.55-27.83 235.55-28.34Q235.55-28.86 230.86-28.86L230.86-28.86Q221.63-28.86 220.31-31.93L220.31-31.93Q219.73-33.11 218.12-34.72Q216.50-36.33 216.21-39.26L216.21-39.26Q215.92-42.33 215.48-46.88L215.48-46.88Q214.89-50.68 215.33-52.15Q215.77-53.61 217.38-54.35L217.38-54.35Q218.85-54.93 220.46-54.05L220.46-54.05Q221.63-53.47 222.07-53.54Q222.51-53.61 223.39-54.49L223.39-54.49Q224.71-55.81 228.81-57.86L228.81-57.86Q236.57-61.67 244.48-63.13ZM242.58-55.37L242.58-55.37Q237.45-53.91 233.20-51.86L233.20-51.86Q230.13-50.39 229.03-49.58Q227.93-48.78 225.59-46.58L225.59-46.58Q223.68-44.68 223.32-44.09Q222.95-43.51 223.24-42.04L223.24-42.04Q223.97-37.79 226.32-36.91L226.32-36.91Q227.49-36.33 233.13-36.69Q238.77-37.06 240.82-36.33L240.82-36.33Q241.41-36.04 241.92-35.96Q242.43-35.89 242.72-35.89Q243.02-35.89 243.02-36.04L243.02-36.04Q243.02-36.33 242.58-36.33L242.58-36.33Q241.99-36.33 241.48-38.01Q240.97-39.70 241.26-40.72L241.26-40.72Q241.55-41.89 243.46-43.07L243.46-43.07Q245.36-44.24 246.09-45.41L246.09-45.41Q246.83-46.58 247.63-49.66Q248.44-52.73 248.44-54.35L248.44-54.35Q248.44-55.52 248.14-55.74Q247.85-55.96 246.39-55.81L246.39-55.81Q244.34-55.81 242.58-55.37ZM243.97-32.37Q243.46-32.37 243.46-31.64Q243.46-30.91 243.97-30.91Q244.48-30.91 244.48-31.64Q244.48-32.37 243.97-32.37ZM243.31-23.00L243.31-23.00Q240.09-22.12 239.28-21.53Q238.48-20.95 238.48-19.78L238.48-19.78Q238.48-18.46 236.21-15.89Q233.94-13.33 233.94-12.89L233.94-12.89Q233.94-12.60 234.89-12.45Q235.84-12.30 237.30-12.52Q238.77-12.74 240.38-13.18L240.38-13.18Q243.16-13.92 244.85-13.92Q246.53-13.92 246.97-15.09L246.97-15.09Q247.41-16.11 247.12-19.85Q246.83-23.58 246.24-23.73L246.24-23.73Q245.80-23.88 243.31-23.00L243.31-23.00ZM421.29-112.79L421.29-112.79Q423.63-115.58 426.86-113.23L426.86-113.23Q428.17-112.21 432.42-106.64Q436.67-101.07 438.57-97.85L438.57-97.85Q440.63-94.19 439.97-91.77Q439.31-89.36 436.23-89.36L436.23-89.36Q434.62-89.36 433.74-90.01Q432.86-90.67 431.84-92.72L431.84-92.72Q430.81-94.63 426.56-100.34L426.56-100.34Q421.73-106.64 420.85-107.96Q419.97-109.28 419.97-110.16L419.97-110.16Q419.97-111.33 421.29-112.79ZM398.00-111.77L398.00-111.77Q400.49-113.09 402.69-111.04L402.69-111.04Q403.56-110.30 403.56-101.66L403.56-101.66Q403.56-90.38 404.74-89.65L404.74-89.65Q405.47-89.36 407.08-90.23L407.08-90.23Q408.54-90.97 410.60-90.82Q412.65-90.67 413.67-89.06L413.67-89.06Q414.99-86.72 413.60-84.67Q412.21-82.62 408.69-81.88L408.69-81.88Q406.05-81.30 405.47-80.49Q404.88-79.69 405.47-77.34L405.47-77.34Q406.05-74.56 406.49-69.80Q406.93-65.04 407.23-64.31L407.23-64.31Q407.52-63.72 407.96-59.18L407.96-59.18Q410.74-34.42 415.87-22.12L415.87-22.12Q418.51-16.26 420.70-12.60L420.70-12.60Q422.61-9.38 425.68-6.30Q428.76-3.22 431.25-1.90L431.25-1.90Q434.77-0.29 435.21-1.90L435.21-1.90Q435.79-3.37 434.40-8.57Q433.01-13.77 431.10-17.58L431.10-17.58Q428.76-22.41 428.61-23.80Q428.47-25.20 430.08-26.81L430.08-26.81Q431.10-27.98 432.79-27.98Q434.47-27.98 435.50-26.81L435.50-26.81Q437.70-24.46 440.33-17.43L440.33-17.43Q442.09-12.89 442.60-10.25Q443.12-7.62 443.26-3.37L443.26-3.37Q443.26 0.59 443.04 1.68Q442.82 2.78 441.94 3.96L441.94 3.96Q439.31 7.62 434.91 7.62L434.91 7.62Q432.86 7.62 430.44 6.88Q428.03 6.15 427.00 5.27L427.00 5.27Q426.12 4.54 425.68 4.54L425.68 4.54Q424.80 4.54 420.63 0.37Q416.46-3.81 414.84-6.30L414.84-6.30Q409.86-13.92 406.35-24.46L406.35-24.46Q402.54-35.60 400.78-49.66L400.78-49.66Q400.63-50.39 399.76-56.84L399.76-56.84Q399.46-59.33 398.29-68.12L398.29-68.12Q397.27-75.73 396.90-77.20Q396.53-78.66 395.80-78.81L395.80-78.81Q394.78-78.96 391.26-78.22L391.26-78.22Q388.33-77.64 382.03-76.32L382.03-76.32Q374.85-75 365.48-73.10L365.48-73.10Q360.06-72.07 359.91-72.07L359.91-72.07Q358.74-71.78 357.42-72.66Q356.10-73.54 355.52-74.93Q354.93-76.32 355.66-77.78L355.66-77.78Q356.54-79.25 358.74-80.05Q360.94-80.86 367.68-82.18L367.68-82.18Q372.07-82.91 375.29-83.64L375.29-83.64Q382.76-85.25 389.94-86.43L389.94-86.43Q393.16-86.87 394.48-87.60L394.48-87.60Q395.36-88.04 395.51-88.62Q395.65-89.21 395.51-92.43L395.51-92.43Q395.21-97.85 395.36-103.27Q395.51-108.69 396.09-109.72L396.09-109.72Q396.68-111.18 398.00-111.77ZM322.85-109.42L322.85-109.42Q325.20-111.18 327.61-109.72Q330.03-108.25 330.03-105.18L330.03-105.18Q330.03-103.86 330.76-102.25L330.76-102.25Q331.49-100.49 332.23-97.12Q332.96-93.75 332.96-92.43L332.96-92.43Q332.96-90.97 331.57-89.43Q330.18-87.89 328.86-87.89L328.86-87.89Q327.10-87.89 325.56-90.23Q324.02-92.58 324.02-95.21L324.02-95.21Q324.02-96.39 323.29-98.29L323.29-98.29Q321.39-103.56 321.31-105.83Q321.24-108.11 322.85-109.42ZM369.43-107.08L369.43-107.08Q370.75-107.23 375.15-107.37L375.15-107.37Q378.08-107.37 378.96-107.15Q379.83-106.93 381.01-106.05L381.01-106.05Q383.94-103.56 381.45-100.34L381.45-100.34Q380.86-99.61 380.20-99.39Q379.54-99.17 377.05-99.32L377.05-99.32Q373.68-99.46 369.73-98.36Q365.77-97.27 363.57-96.97L363.57-96.97Q360.79-96.68 359.62-98.07Q358.45-99.46 359.03-102.25L359.03-102.25Q359.47-103.71 361.82-104.74L361.82-104.74Q366.36-106.64 369.43-107.08ZM345.70-85.69L345.70-85.69Q346.73-85.99 348.63-85.25L348.63-85.25Q350.39-84.52 351.05-82.76Q351.71-81.01 350.98-78.66L350.98-78.66Q350.24-76.17 346.44-68.19Q342.63-60.21 338.96-53.61L338.96-53.61Q338.67-53.17 338.23-52.29L338.23-52.29Q335.60-47.46 335.38-46.44Q335.16-45.41 336.62-43.80L336.62-43.80Q336.91-43.51 337.06-43.36L337.06-43.36Q339.70-40.58 345.26-33.33Q350.83-26.07 353.32-22.41L353.32-22.41Q354.93-19.92 353.91-17.94Q352.88-15.97 350.10-15.97L350.10-15.97Q348.63-15.97 347.97-16.41Q347.31-16.85 345.56-19.04L345.56-19.04Q342.77-22.56 339.26-27.39L339.26-27.39Q331.49-37.94 330.18-37.94L330.18-37.94Q329.59-37.94 327.25-34.57L327.25-34.57Q322.12-27.39 316.55-21.24Q310.99-15.09 309.08-14.65L309.08-14.65Q307.18-14.06 305.42-15.89Q303.66-17.72 304.25-19.63L304.25-19.63Q304.54-20.65 308.06-24.32L308.06-24.32Q314.65-31.20 321.39-40.87L321.39-40.87Q324.02-44.53 323.29-45.41L323.29-45.41Q322.85-46.29 316.70-51.56L316.70-51.56Q312.30-55.37 311.43-56.47Q310.55-57.57 310.55-58.74L310.55-58.74Q310.55-61.38 312.52-62.48Q314.50-63.57 316.85-62.11L316.85-62.11Q320.36-59.91 325.78-54.79L325.78-54.79Q327.69-52.88 328.27-52.88L328.27-52.88Q329.30-52.88 336.04-66.36L336.04-66.36Q340.58-75.29 340.28-75.88L340.28-75.88Q339.70-76.90 326.66-73.83L326.66-73.83Q322.56-72.95 320.95-73.02Q319.34-73.10 318.16-74.27L318.16-74.27Q315.82-76.76 317.94-79.03Q320.07-81.30 326.07-82.47L326.07-82.47Q335.89-84.38 340.72-84.96L340.72-84.96Q345.26-85.40 345.70-85.69ZM372.66-69.14L373.83-70.61Q376.17-72.95 378.81-70.75L378.81-70.75Q379.83-69.87 380.05-68.70Q380.27-67.53 380.71-62.70L380.71-62.70Q381.30-55.81 381.88-55.59Q382.47-55.37 386.13-56.54L386.13-56.54Q389.50-57.86 390.67-57.86Q391.85-57.86 393.16-56.84L393.16-56.84Q394.48-55.81 394.48-53.91L394.48-53.91Q394.48-52.15 393.31-51.05Q392.14-49.95 388.77-48.63L388.77-48.63Q383.06-46.58 382.10-45.34Q381.15-44.09 380.86-38.82L380.86-38.82Q380.27-29.88 378.52-28.86L378.52-28.86Q377.34-28.27 375.88-28.42Q374.41-28.56 373.39-29.30L373.39-29.30L372.22-30.32L372.36-49.80L372.66-69.14ZM357.42-54.05L357.42-54.05Q359.91-54.79 361.52-53.69Q363.13-52.59 364.31-49.51L364.31-49.51Q365.19-47.02 365.77-45.70L365.77-45.70Q369.87-35.89 368.41-26.22L368.41-26.22Q368.12-23.58 367.31-22.63Q366.50-21.68 364.45-21.68L364.45-21.68Q361.96-21.68 361.23-23.00Q360.50-24.32 360.50-29.30L360.50-29.30Q360.50-36.47 358.15-41.75L358.15-41.75Q357.42-43.36 357.42-44.09Q357.42-44.82 356.98-45.12Q356.54-45.41 355.96-48.19L355.96-48.19Q355.52-50.39 355.88-52.08Q356.25-53.76 357.42-54.05ZM392.43-42.92L392.43-42.92Q391.55-42.48 389.36-38.82L389.36-38.82Q386.87-34.86 382.76-31.05Q378.66-27.25 368.41-19.63L368.41-19.63Q360.94-14.06 358.74-11.72Q356.54-9.38 356.54-7.32L356.54-7.32Q356.54-4.54 359.03-3.88Q361.52-3.22 363.72-5.27L363.72-5.27Q365.33-6.88 372.51-12.16L372.51-12.16Q383.94-20.65 388.92-25.34Q393.90-30.03 396.68-34.57L396.68-34.57Q399.02-38.67 399.02-39.48Q399.02-40.28 397.71-41.89L397.71-41.89Q395.36-44.68 392.43-42.92L392.43-42.92Z"/>
    </svg>
        